<svg viewBox="0 0 58.56 85.57" xmlns="http://www.w3.org/2000/svg"><path d="m13.46 31.91h31.64v49.77h-31.64z" fill="#5590cc" opacity=".25" transform="matrix(.70710678 .70710678 -.70710678 .70710678 48.73 -4.07)"/><g fill="#fff" stroke="#5590cc" stroke-linejoin="round"><path d="m13.46 11.94h31.64v49.77h-31.64z" transform="matrix(.70710678 .70710678 -.70710678 .70710678 34.61 -9.92)"/><path d="m13.46 8.17h31.64v49.77h-31.64z" transform="matrix(.70710678 .70710678 -.70710678 .70710678 31.95 -11.02)"/><path d="m19.05 54.25-18.55-18.56 35.19-35.19 22.37 22.37-31.42 31.42z"/><path d="m39.77 21.47 7.31 7.31"/><path d="m37.81 23.43 7.31 7.31"/><path d="m35.84 25.39 7.32 7.32"/><path d="m33.88 27.36 7.32 7.31"/><path d="m31.66 29.57 7.27 7.27"/></g><path d="m24.41 13.36h10.77v13.21h-10.77z" fill="#5590cc" transform="matrix(.70710678 .70710678 -.70710678 .70710678 22.84 -15.22)"/><path d="m30.74 14.16h23.68v3.73h-23.68z" fill="#5590cc" transform="matrix(.70710678 .70710678 -.70710678 .70710678 23.8 -25.41)"/><path d="m18.77 23.97 7.31 7.31" fill="#fff" stroke="#5590cc" stroke-linejoin="round"/><path d="m16.81 25.93 7.31 7.31" fill="#fff" stroke="#5590cc" stroke-linejoin="round"/><path d="m14.84 27.89 7.32 7.32" fill="#fff" stroke="#5590cc" stroke-linejoin="round"/><path d="m12.88 29.86 7.32 7.31" fill="#fff" stroke="#5590cc" stroke-linejoin="round"/><path d="m10.66 32.07 4.25 4.25" fill="#fff" stroke="#5590cc" stroke-linejoin="round"/><path d="m22.49 34.57h10.5v13.21h-10.5z" fill="#5590cc" transform="matrix(.70710678 .70710678 -.70710678 .70710678 37.24 -7.56)"/><path d="m19.36 54.19 3.52-3.52 3.52 3.52z" fill="#fff" stroke="#5590cc" stroke-linejoin="round"/></svg>