<svg enable-background="new 0 0 1920 1080" viewBox="0 0 1920 1080" xmlns="http://www.w3.org/2000/svg"><path d="m1147.4 617.8h-349.3v-194.4c0-39.9 32.3-72.3 72.3-72.3h204.8c39.9 0 72.3 32.3 72.3 72.3v194.4z" fill="#8c6239"/><path d="m1174.5 794h-403.5c-12.4 0-22.5-10.1-22.5-22.5v-153.7h448.6v153.7c0 12.4-10.1 22.5-22.6 22.5z" fill="#8c6239"/><path d="m819.8 617.8h305.9v68.8h-305.9z" fill="#603813"/><path d="m819.8 686.6h305.9v34.4h-305.9z" fill="#8c6239"/><path d="m819.8 794h-48.8c-12.5 0-22.6-10.1-22.6-22.6v-178.6h71.3v201.2z" fill="#754c24"/><path d="m1126 794h48.8c12.5 0 22.6-10.1 22.6-22.6v-182h-71.4z" fill="#754c24"/><circle cx="761.5" cy="595.5" fill="#754c24" r="58.4"/><circle cx="1183.7" cy="594.8" fill="#754c24" r="58.4"/><path d="m782 821.1c-8.9 0-16.1-7.2-16.1-16.1v-11h32.2v11c0 8.9-7.2 16.1-16.1 16.1z" fill="#603813"/><path d="m1163.5 821.1c-8.9 0-16.1-7.2-16.1-16.1v-11h32.2v11c.1 8.9-7.2 16.1-16.1 16.1z" fill="#603813"/><path d="m1139 728.7h-332.4v-25.8c0-10.9 8.9-19.8 19.8-19.8h292.8c10.9 0 19.8 8.9 19.8 19.8z" fill="#a67c52"/><path d="m806.6 728.7h332.4v65.3h-332.4z" fill="#8c6239"/><path d="m806.6 728.7h332.4v11.1h-332.4z" fill="#754c24"/><path d="m1009 678.2h-53c-27.3 0-49.5-22.2-49.5-49.5v-26.5h152v26.5c.1 27.3-22.1 49.5-49.5 49.5z" fill="#333"/><path d="m1058.6 623h-152l-1.4-177.3c0-17.5 10.8-31.7 24.2-31.7h103.5c13.4 0 24.2 14.2 24.2 31.7z" fill="#405a7f"/><path d="m1015.6 410.6c0 13.4-10.9 24.5-24.3 24.5h-.2c-13.4 0-24.5-11.1-24.5-24.5v-21.6h49z" fill="#bf844f"/><path d="m939 419.5c7.2 7.2 7.1 18.9-.1 26.1l-97.4 96.8c-7.2 7.2-18.9 7.1-26.1-.1s-7.1-18.9.1-26.1l97.4-96.8c7.2-7.1 18.9-7.1 26.1.1z" fill="#405a7f"/><path d="m1020.6 419.5c-7.2 7.2-7.1 18.9.1 26.1l97.4 96.8c7.2 7.2 18.9 7.1 26.1-.1s7.1-18.9-.1-26.1l-97.4-96.8c-7.2-7.1-18.9-7.1-26.1.1z" fill="#405a7f"/><path d="m958.2 864.9v41l-80.8 14.4s3.3-26.5 23.1-30c19.8-3.6 36.4 1.9 36.4 1.9l2.1-27.3z" fill="#754c24"/><path d="m966.6 405c9.5 4.1 19.4 6.3 28.9 6.3 6.6 0 13.4-1.1 20.1-3.1v-15.5h-49z" fill="#a06d42"/><path d="m927.6 623h41v241.9h-41z" fill="#333"/><path d="m1120.9 279.2c0-9.9-6.3-18.4-15.2-21.5 6.1-5.6 10-13.6 10-22.6 0-15.9-12.2-29-27.8-30.4 1.3-3.1 2-6.5 2-10.1 0-14.9-12.1-27-27-27-7.4 0-14 2.9-18.9 7.7 0-.1 0-.1 0-.2 0-13.8-11.2-25-25-25-8.8 0-16.5 4.5-21 11.4-5.3-6.1-13.2-9.9-21.9-9.9-13.3 0-24.5 8.9-27.9 21-4.3-2.6-9.4-4-14.8-4-16.1 0-29.1 13-29.1 29.1 0 2.2.2 4.3.7 6.3-16.9.2-30.6 13.9-30.6 30.9 0 11.4 6.2 21.3 15.3 26.7-7.1 3.8-11.9 11.3-11.9 20 0 9.5 5.8 17.6 14.1 21-2.4 3.2-3.9 7.2-3.9 11.6 0 10.1 7.7 18.4 17.6 19.3-.9 2.3-1.4 4.8-1.4 7.4 0 11 8.9 19.9 19.9 19.9 7.6 0 14.2-4.3 17.5-10.5 15.1 10.5 33.5 16.7 53.4 16.7 20.1 0 38.8-6.3 54-17.1 3.2 7.2 10.4 12.2 18.8 12.2 11.4 0 20.7-9.2 20.7-20.7 0-2-.3-4-.9-5.9.6 0 1.2.1 1.8.1 12.9 0 23.4-10.5 23.4-23.4 0-4.7-1.4-9.1-3.8-12.8 7.1-4 11.9-11.5 11.9-20.2z" fill="#603813"/><path d="m997.7 398.2c-34.9 0-76.8-30.5-76.8-73.2v-66.2c0-34.4 27.9-62.4 62.4-62.4h29.4c34.4 0 62.4 27.9 62.4 62.4v66.2c-.2 42.8-42.5 73.2-77.4 73.2z" fill="#bf844f"/><path d="m902.7 253.6h36.3v39h-36.3z" fill="#603813"/><circle cx="920.5" cy="290.4" fill="#bf844f" r="21.9"/><path d="m916.1 293.5c0-4.3 3.5-7.8 7.8-7.8 1.2 0 2.3.3 3.3.7-1.4-2.3-3.8-3.8-6.7-3.8-4.3 0-7.8 3.5-7.8 7.8 0 3.1 1.8 5.8 4.5 7-.7-1.2-1.1-2.5-1.1-3.9z" fill="#8c6239"/><ellipse cx="972.8" cy="293" fill="#333" rx="5" ry="8.8"/><ellipse cx="1036.3" cy="293" fill="#333" rx="5" ry="8.8"/><path d="m999.7 302.1v15.9c0 .7.9 1.3 1.6 1.3h9.4c2.6 0 4-3 2.3-4.9l-10.9-13c-.7-1.1-2.4-.5-2.4.7z" fill="#8c6239"/><circle cx="1076.6" cy="290.4" fill="#bf844f" r="21.9"/><path d="m1083.9 293.5c0-4.3-3.5-7.8-7.8-7.8-1.2 0-2.3.3-3.3.7 1.4-2.3 3.8-3.8 6.7-3.8 4.3 0 7.8 3.5 7.8 7.8 0 3.1-1.8 5.8-4.5 7 .7-1.2 1.1-2.5 1.1-3.9z" fill="#8c6239"/><path d="m979.2 328.1c0 13.6 11.1 24.7 24.7 24.7s24.7-11.1 24.7-24.7" fill="none" stroke="#8c6239" stroke-linecap="round" stroke-miterlimit="10" stroke-width="4.5315"/><path d="m1079.1 231.9v-8.5c0-16.8-13.6-30.4-30.4-30.4h-97.1c-16.8 0-30.4 13.6-30.4 30.4v23.3c-1 2.8-1 5.6 0 8.4l3.4 6.5c5.5 6 15.2 7.2 23.4 2.5 7.8-4.5 11.6-12.9 9.9-20.4l1.9-1c2.8 1.5 6 2.4 9.4 2.4 8.7 0 16.1-5.7 18.6-13.7 3.2 9 12.5 15.5 23.4 15.5 8.1 0 15.4-3.6 19.8-9.2 1.6 6.4 6 12.6 12.6 16.8 12.2 7.7 27.4 5.7 33.9-4.4 3.4-5.4 3.6-12 1.6-18.2z" fill="#603813"/><path d="m816.7 504.9c2.1 2.5 5.9 2.8 8.4.7l20.7-17.6c2.5-2.1 2.8-5.9.7-8.4s-5.9-2.8-8.4-.7l-20.7 17.6c-2.6 2.2-2.9 5.9-.7 8.4z" fill="#bf844f"/><path d="m1160.8 504.9c-2.1 2.5-5.9 2.8-8.4.7l-20.7-17.6c-2.5-2.1-2.8-5.9-.7-8.4s5.9-2.8 8.4-.7l20.7 17.6c2.5 2.2 2.8 5.9.7 8.4z" fill="#bf844f"/><path d="m988.1 654.5-153.8-25.7v-222.5l153.8 26.6z" fill="#f2f2f2"/><path d="m970.3 495.1-117.6-20.1v-51.1l117.6 20.3z" fill="#ccc"/><g fill="#e6e6e6"><path d="m907.6 498.1-54.9-9.4v-5l54.9 9.3z"/><path d="m907.6 508.8-54.9-9.3v-5l54.9 9.3z"/><path d="m907.6 519.6-54.9-9.3v-5.1l54.9 9.4z"/><path d="m907.6 530.4-54.9-9.4v-5l54.9 9.4z"/><path d="m907.6 541.1-54.9-9.3v-5l54.9 9.3z"/><path d="m887.7 551-35-5.9v-5l35 5.9z"/><path d="m929 558-35-5.9v-5l35 5.9z"/><path d="m970.3 565-34.9-5.9v-5l34.9 5.9z"/><path d="m887.7 560.6-35-5.9v-5l35 5.9z"/><path d="m929 567.6-35-5.9v-5l35 5.9z"/><path d="m970.3 574.6-34.9-5.9v-5l34.9 5.9z"/><path d="m887.7 570.2-35-5.9v-5l35 5.9z"/><path d="m929 577.2-35-5.9v-5l35 5.9z"/><path d="m970.3 584.2-34.9-5.9v-5l34.9 5.9z"/><path d="m887.7 579.9-35-5.9v-5l35 5.9z"/><path d="m929 586.8-35-5.9v-5l35 5.9z"/><path d="m970.3 593.8-34.9-5.9v-5l34.9 5.9z"/><path d="m887.7 589.5-35-5.9v-5l35 5.9z"/><path d="m929 596.4-35-5.8v-5l35 5.8z"/><path d="m970.3 603.4-34.9-5.9v-5l34.9 5.9z"/><path d="m970.3 616.4-34.9-5.9v-5l34.9 5.9z"/><path d="m970.3 626-34.9-5.9v-5l34.9 5.9z"/><path d="m970.3 635.6-34.9-5.9v-5l34.9 5.9z"/><path d="m970.3 551.8-54.5-9.3v-48l54.5 9.3z"/></g><path d="m929 628.7-76.3-12.8v-24.3l76.3 12.8z" fill="#ccc"/><path d="m1139 626.1-150.9 28.6v-221.8l150.9-25z" fill="#e6e6e6"/><g fill="#ccc"><path d="m1040.1 542.1-34.2 6.1v-5l34.2-6.1z"/><path d="m1080.7 534.9-34.3 6.1v-5l34.3-6.1z"/><path d="m1121.2 527.6-34.3 6.1v-4.9l34.3-6.1z"/><path d="m1040.1 551.7-34.2 6.1v-5l34.2-6.1z"/><path d="m1080.7 544.4-34.3 6.1v-4.9l34.3-6.2z"/><path d="m1121.2 537.1-34.3 6.1v-4.9l34.3-6.1z"/><path d="m1040.1 561.2-34.2 6.2v-5l34.2-6.2z"/><path d="m1080.7 553.9-34.3 6.2v-5l34.3-6.2z"/><path d="m1121.2 546.5-34.3 6.2v-4.9l34.3-6.2z"/><path d="m1040.1 570.8-34.2 6.2v-5l34.2-6.2z"/><path d="m1080.7 563.4-34.3 6.2v-4.9l34.3-6.3z"/><path d="m1121.2 556-34.3 6.2v-4.9l34.3-6.2z"/><path d="m1040.1 580.3-34.2 6.3v-5l34.2-6.3z"/><path d="m1061.7 588.4-55.8 10.3v-5l55.8-10.3z"/><path d="m1061.7 597-55.8 10.3v-5l55.8-10.3z"/><path d="m1061.7 606.5-55.8 10.4v-5l55.8-10.3z"/><path d="m1061.7 616-55.8 10.5v-5l55.8-10.4z"/><path d="m1061.7 625.6-55.8 10.5v-5l55.8-10.5z"/><path d="m1080.7 572.9-34.3 6.3v-5l34.3-6.2z"/><path d="m1121.2 565.5-34.3 6.3v-5l34.3-6.2z"/><path d="m1064.7 508-61 10.7v-74.1l61-10.2z"/></g><path d="m1121.2 447.9-50.3 8.5v-23l50.3-8.5z" fill="#b3b3b3"/><path d="m1121.2 460.4-50.3 8.6v-4.9l50.3-8.6z" fill="#ccc"/><path d="m1121.2 469.9-50.3 8.7v-5l50.3-8.6z" fill="#ccc"/><path d="m1121.2 479.4-50.3 8.7v-5l50.3-8.7z" fill="#ccc"/><path d="m1121.2 488.7-50.3 8.7v-4.9l50.3-8.8z" fill="#ccc"/><path d="m1121.2 498.1-50.3 8.8v-4.9l50.3-8.8z" fill="#ccc"/><path d="m1121.2 515.5-117.5 20.9v-10.8l117.5-20.7z" fill="#b3b3b3"/><path d="m1121.2 614.4-53.6 10.1v-43.1l53.6-9.8z" fill="#ccc"/><path d="m1157.1 542.5-9.6.1c-4.1.1-7.5-3.2-7.6-7.4l-.5-32.5c-.1-4.1 3.2-7.5 7.4-7.6l9.6-.1c4.4-.1 8 3.4 8.1 7.8l.5 31.6c0 4.4-3.5 8-7.9 8.1z" fill="#bf844f"/><path d="m1157.2 500.9c0 3.3-2.6 6-5.8 6l-27.2.4c-3.3 0-6-2.6-6-5.8 0-3.3 2.6-6 5.8-6l27.2-.4c3.3-.1 6 2.5 6 5.8z" fill="#bf844f"/><path d="m1152.1 512.9c0 3.3-2.6 6-5.8 6l-27.2.4c-3.3 0-6-2.6-6-5.8 0-3.3 2.6-6 5.8-6l27.2-.4c3.2-.1 5.9 2.5 6 5.8z" fill="#bf844f"/><path d="m1155.2 524.7c0 3.3-2.6 6-5.8 6l-27.2.4c-3.3 0-6-2.6-6-5.8 0-3.3 2.6-6 5.8-6l27.2-.4c3.3-.1 6 2.5 6 5.8z" fill="#bf844f"/><path d="m1159.8 536.5c0 3.3-2.6 6-5.8 6l-27.2.4c-3.3 0-6-2.6-6-5.8 0-3.3 2.6-6 5.8-6l27.2-.4c3.2-.1 5.9 2.5 6 5.8z" fill="#bf844f"/><path d="m820.3 542.5 9.6.1c4.1.1 7.5-3.2 7.6-7.4l.5-32.5c.1-4.1-3.2-7.5-7.4-7.6l-9.6-.1c-4.4-.1-8 3.4-8.1 7.8l-.5 31.6c0 4.4 3.5 8 7.9 8.1z" fill="#bf844f"/><path d="m820.2 500.9c0 3.3 2.6 6 5.8 6l27.2.4c3.3 0 6-2.6 6-5.8 0-3.3-2.6-6-5.8-6l-27.2-.4c-3.3-.1-6 2.5-6 5.8z" fill="#bf844f"/><path d="m825.3 512.9c0 3.3 2.6 6 5.8 6l27.2.4c3.3 0 6-2.6 6-5.8 0-3.3-2.6-6-5.8-6l-27.2-.4c-3.2-.1-5.9 2.5-6 5.8z" fill="#bf844f"/><path d="m822.2 524.7c0 3.3 2.6 6 5.8 6l27.2.4c3.3 0 6-2.6 6-5.8 0-3.3-2.6-6-5.8-6l-27.2-.4c-3.3-.1-6 2.5-6 5.8z" fill="#bf844f"/><path d="m817.6 536.5c0 3.3 2.6 6 5.8 6l27.2.4c3.3 0 6-2.6 6-5.8 0-3.3-2.6-6-5.8-6l-27.2-.4c-3.2-.1-5.9 2.5-6 5.8z" fill="#bf844f"/><path d="m880.2 643.2 6.7 40.4 172.4-28.7c11.2-1.9 18.7-12.4 16.9-23.6-1.9-11.2-12.4-18.7-23.6-16.9z" fill="#4d4d4d"/><path d="m882.3 655.8-40.5 6.7 12.8 79.8s17.6-6 17.9-26.1-13.6-34.8-13.6-34.8l26.6-6.6z" fill="#754c24"/></svg>